<svg xmlns="http://www.w3.org/2000/svg" width="175.534" height="123.643" viewBox="0 0 175.534 123.643"><defs><style>.a{fill:#fff;}</style></defs><g transform="translate(-596.635 -106.026)"><rect width="150.376" height="104.565" rx="3" transform="translate(621.793 106.026)"/><path class="a" d="M157.994,27.582V73.434a1.02,1.02,0,0,0,1.475.941l44.423-22.924a1.069,1.069,0,0,0,0-1.882L159.469,26.641A1.021,1.021,0,0,0,157.994,27.582Z" transform="translate(515.757 107.8)"/><g transform="translate(596.635 120.167)"><path d="M264.221,132.028H153.653a17.418,17.418,0,0,1-17.454-17.38V27.427a4.925,4.925,0,0,1,9.851,0v82.321a12.5,12.5,0,0,0,12.529,12.476H264.221a4.9,4.9,0,1,1,0,9.8Z" transform="translate(-136.199 -22.526)"/></g></g></svg>