<svg xmlns="http://www.w3.org/2000/svg" width="154.993" height="161.833" viewBox="0 0 154.993 161.833">
<style>
   .config {
      fill: #606060;
   }
</style>
<path class="config" d="M575.965,172.348l-13.906-8.032a62.241,62.241,0,0,0,0-22.893l13.906-8.032a3.9,3.9,0,0,0,1.8-4.564,81.283,81.283,0,0,0-17.833-30.889,3.983,3.983,0,0,0-4.847-.743l-13.516,8.032a62.234,62.234,0,0,0-19.5-11.464V77.735a3.754,3.754,0,0,0-2.866-3.68,82.863,82.863,0,0,0-36.338-.106,4.056,4.056,0,0,0-3.255,3.786V93.8a65.306,65.306,0,0,0-19.85,11.464l-13.905-8.032a3.857,3.857,0,0,0-4.741.672,80.545,80.545,0,0,0-17.939,30.96,3.9,3.9,0,0,0,1.8,4.564l13.905,8.032a62.249,62.249,0,0,0,0,22.893l-13.905,8.032a3.94,3.94,0,0,0-1.8,4.564,81.36,81.36,0,0,0,17.868,30.889,3.885,3.885,0,0,0,4.812.743l13.905-8.032a61.556,61.556,0,0,0,19.85,11.464v16.064a3.829,3.829,0,0,0,2.937,3.751,83.176,83.176,0,0,0,36.656-.106,3.714,3.714,0,0,0,2.866-3.644V212.012a64.032,64.032,0,0,0,19.5-11.464L555.3,208.58a3.786,3.786,0,0,0,4.741-.743,81.212,81.212,0,0,0,17.8-30.889A4.008,4.008,0,0,0,575.965,172.348Zm-75.471,17.468A36.915,36.915,0,1,1,537.408,152.9,36.915,36.915,0,0,1,500.493,189.816Z" transform="translate(-422.998 -71.985)"/></svg>