<svg xmlns="http://www.w3.org/2000/svg" width="132.756" height="175.844" viewBox="0 0 132.756 175.844"><path d="M193.976,136.172c-5.7-7.961-21.23-22.786-27.315-28.306-15.568-14.684-16.134-29.757-16.134-29.757,0-4.847-3.574-9.943-8.244-8.775-3.4.849-7.253,4.635-10.615,9.978,0,0-30.783,40.832-30.783,82.689a73.159,73.159,0,0,0,4.14,24.8,49.014,49.014,0,0,1-4.034-57.249,8.715,8.715,0,0,0-3.432.955l-.071.035-.071.071c-1.238,1.168-2.441,2.406-3.574,3.68a66.527,66.527,0,1,0,100.133,1.875ZM149.79,224.388a43.5,43.5,0,0,1-34.937-17.525,43.539,43.539,0,0,0,56.825-41.111,42.714,42.714,0,0,0-8.573-25.663,43.144,43.144,0,0,1-13.315,84.3Z" transform="translate(-76.859 -69.165)"/></svg>