<svg xmlns="http://www.w3.org/2000/svg" width="148.607" height="139.468" viewBox="0 0 148.607 139.468"><defs><style>.a{fill:#fff;}</style></defs><g transform="translate(-1197.436 -97.077)"><path d="M447.6,16H314.124C309.637,16,306,20.43,306,24.916v128.8c0,1.4,2,2.381,2.933,1.263l27.775-32.835H447.6c4.483,0,7.006-4.43,7.006-8.916V24.916C454.607,20.43,452.084,16,447.6,16Z" transform="translate(891.436 81.077)"/><g transform="translate(1263.708 114.768)"><path class="a" d="M337.287,70.536,338.883,21H325.044l1.6,49.536Z" transform="translate(-323.932 -21)"/><path class="a" d="M332.762,36.126a7.939,7.939,0,1,0,0,15.876,7.721,7.721,0,0,0,8.032-7.936A7.642,7.642,0,0,0,332.762,36.126Z" transform="translate(-324.73 17.394)"/></g></g></svg>