<svg xmlns="http://www.w3.org/2000/svg" width="102.61" height="148.607" viewBox="0 0 102.61 148.607"><defs><style>.a{fill:none;}</style></defs><rect class="a" width="10.615" height="14.153" transform="translate(7.077 17.691)"/><rect class="a" width="10.615" height="10.615" transform="translate(7.077 42.459)"/><rect class="a" width="10.615" height="14.153" transform="translate(7.077 130.916)"/><rect class="a" width="10.615" height="14.153" transform="translate(7.077 63.689)"/><rect class="a" width="10.615" height="14.153" transform="translate(7.077 109.686)"/><rect class="a" width="10.615" height="14.153" transform="translate(7.077 84.918)"/><path d="M354.533,14V24.615H343.918V14H276.691V24.615H266.077V14H259V162.607H361.61V14ZM276.691,159.069H266.077V144.916h10.615Zm0-21.23H266.077V123.686h10.615Zm0-24.768H266.077V98.918h10.615Zm0-21.23H266.077V77.689h10.615Zm0-24.768H266.077V56.459h10.615Zm0-21.23H266.077V31.691h10.615Zm77.842,113.225H343.918V144.916h10.615Zm0-21.23H343.918V123.686h10.615Zm0-24.768H343.918V98.918h10.615Zm0-21.23H343.918V77.689h10.615Zm0-24.768H343.918V56.459h10.615Zm0-21.23H343.918V31.691h10.615Z" transform="translate(-259 -14)"/><rect class="a" width="10.615" height="10.615" transform="translate(84.918)"/><rect class="a" width="10.615" height="14.153" transform="translate(84.918 130.916)"/><rect class="a" width="10.615" height="14.153" transform="translate(84.918 109.686)"/><rect class="a" width="10.615" height="14.153" transform="translate(84.918 84.918)"/><rect class="a" width="10.615" height="14.153" transform="translate(84.918 63.689)"/><rect class="a" width="10.615" height="10.615" transform="translate(84.918 42.459)"/><rect class="a" width="10.615" height="14.153" transform="translate(84.918 17.691)"/></svg>