<svg xmlns="http://www.w3.org/2000/svg" width="177.185" height="88.588" viewBox="0 0 177.185 88.588"><path d="M143.665,137.187H55.06a44.294,44.294,0,1,0,31.625,75.3h25.338a44.293,44.293,0,1,0,31.643-75.3ZM79.421,184.805a3.323,3.323,0,0,1-3.322,3.322H61.7v14.394a3.323,3.323,0,0,1-3.322,3.322H51.738a3.323,3.323,0,0,1-3.322-3.322V188.127H34.022a3.323,3.323,0,0,1-3.322-3.322V178.16a3.321,3.321,0,0,1,3.322-3.322H48.415V160.444a3.323,3.323,0,0,1,3.322-3.322h6.645a3.323,3.323,0,0,1,3.322,3.322v14.394H76.1a3.321,3.321,0,0,1,3.322,3.322h0Zm59.8,21.039a11.073,11.073,0,1,1,11.071-11.075A11.073,11.073,0,0,1,139.218,205.844Zm17.716-26.576a11.073,11.073,0,1,1,11.075-11.075A11.072,11.072,0,0,1,156.934,179.268Z" transform="translate(-10.761 -137.187)"/></svg>