<svg xmlns="http://www.w3.org/2000/svg" width="126.702" height="113.565" viewBox="0 0 126.702 113.565"><g transform="translate(0)"><g transform="translate(92.514 60.631)"><path d="M429.178,129.349l-22.5,22.507a3.961,3.961,0,0,1-5.612,0l-3.74-3.74a3.962,3.962,0,0,1,0-5.612l15.954-15.951L397.323,110.6a3.962,3.962,0,0,1,0-5.612l3.74-3.74a3.961,3.961,0,0,1,5.612,0l22.5,22.507a3.93,3.93,0,0,1,0,5.59Z" transform="translate(-396.158 -100.087)"/></g><path d="M373.928,100.565H475.7a3.913,3.913,0,0,0,3.917-3.913V86.864a3.913,3.913,0,0,0-3.917-3.913H373.928a3.913,3.913,0,0,0-3.917,3.913v9.787A3.913,3.913,0,0,0,373.928,100.565Zm0,39.147H475.7a3.913,3.913,0,0,0,3.917-3.913v-9.787a3.916,3.916,0,0,0-3.917-3.917H373.928a3.916,3.916,0,0,0-3.917,3.917V135.8A3.913,3.913,0,0,0,373.928,139.712Zm-.9,39.144h78.316c1.666,0,3.015-1.751,3.015-3.913v-9.787c0-2.162-1.348-3.913-3.015-3.913H373.026c-1.667,0-3.015,1.751-3.015,3.913v9.787C370.011,177.1,371.359,178.856,373.026,178.856Z" transform="translate(-370.011 -82.951)"/></g></svg>