<svg xmlns="http://www.w3.org/2000/svg" width="154.481" height="108.618" viewBox="0 0 154.481 108.618"><g transform="translate(0 0)">
<style>
   .youtube {
      fill: #f00;
   }
</style>
<path class="youtube" d="M350.438,34.875A19.415,19.415,0,0,0,336.78,21.129c-12.048-3.248-60.356-3.248-60.356-3.248s-48.308,0-60.352,3.248a19.4,19.4,0,0,0-13.658,13.746C199.184,47,199.184,72.3,199.184,72.3s0,25.3,3.23,37.421a19.113,19.113,0,0,0,13.658,13.527c12.044,3.252,60.352,3.252,60.352,3.252s48.308,0,60.356-3.252a19.125,19.125,0,0,0,13.658-13.527c3.227-12.126,3.227-37.421,3.227-37.421S353.665,47,350.438,34.875ZM260.626,95.266V49.329L301,72.3,260.626,95.266Z" transform="translate(-199.184 -17.881)"/></g></svg>