<svg xmlns="http://www.w3.org/2000/svg" width="109.609" height="95.905" viewBox="0 0 109.609 95.905">
   <style>
    .bars {fill: #606060;};
   </style>
<path class="bars" d="M319.393,98.076H421.172a3.916,3.916,0,0,0,3.917-3.913V84.375a3.916,3.916,0,0,0-3.917-3.913H319.393a3.913,3.913,0,0,0-3.913,3.913v9.787A3.913,3.913,0,0,0,319.393,98.076Zm0,39.147H421.172a3.919,3.919,0,0,0,3.917-3.917v-9.787a3.916,3.916,0,0,0-3.917-3.913H319.393a3.913,3.913,0,0,0-3.913,3.913v9.787A3.916,3.916,0,0,0,319.393,137.223Zm0,39.144H421.172a3.916,3.916,0,0,0,3.917-3.913v-9.787a3.919,3.919,0,0,0-3.917-3.917H319.393a3.916,3.916,0,0,0-3.913,3.917v9.787A3.913,3.913,0,0,0,319.393,176.367Z" transform="translate(-315.48 -80.462)"/>
</svg>