<svg xmlns="http://www.w3.org/2000/svg" width="102.531" height="117.177" viewBox="0 0 102.531 117.177"><path d="M183.471,182.431a14.646,14.646,0,0,0,14.642-14.649H168.831A14.644,14.644,0,0,0,183.471,182.431Zm49.3-34.263c-4.423-4.752-12.7-11.9-12.7-35.312,0-17.781-12.468-32.017-29.281-35.508v-4.77a7.319,7.319,0,1,0-14.637,0v4.77c-16.811,3.491-29.281,17.727-29.281,35.508,0,23.413-8.273,30.56-12.7,35.312a7.16,7.16,0,0,0-1.969,4.969,7.329,7.329,0,0,0,7.346,7.323h87.837a7.331,7.331,0,0,0,7.348-7.323A7.149,7.149,0,0,0,232.766,148.167Z" transform="translate(-132.206 -65.253)" fill="#606060"/></svg>