<svg xmlns="http://www.w3.org/2000/svg" width="172.806" height="117" viewBox="0 0 172.806 117"><g transform="translate(-810.449 -304.546)"><g transform="translate(810.449 304.546)"><path d="M297.493,74.636H210.969A14.454,14.454,0,0,0,196.628,89.2v87.871a14.454,14.454,0,0,0,14.341,14.564h86.524a14.454,14.454,0,0,0,14.341-14.564V89.2a14.454,14.454,0,0,0-14.341-14.564Zm56.823,11.488-32.884,23.031v47.957l32.884,23a9.609,9.609,0,0,0,15.118-7.859V93.984A9.613,9.613,0,0,0,354.316,86.124Z" transform="translate(-196.628 -74.636)" fill="#606060"/><text transform="translate(32.671 86.667)" fill="#fff" font-size="86" font-family="Arial-BoldMT, Arial" font-weight="700"><tspan x="0" y="0">+</tspan></text></g></g></svg>