<svg xmlns="http://www.w3.org/2000/svg" width="145.433" height="143.869" viewBox="0 0 145.433 143.869"><g transform="translate(-170.896 -90)"><path d="M148.872,20H22a5.107,5.107,0,0,0-4.883,5.307A5.107,5.107,0,0,0,22,30.615H148.872a5.107,5.107,0,0,0,4.883-5.307A5.107,5.107,0,0,0,148.872,20Z" transform="translate(158.176 91.23)"/><path d="M23.44,24.615H138.278c2.438,0,4.416-2.866,4.416-5.307S140.716,14,138.278,14H23.44c-2.438,0-4.416,2.866-4.416,5.307S21,24.615,23.44,24.615Z" transform="translate(163.014 76)"/><g transform="translate(170.896 131.61)"><path d="M158.269,41.76a18.259,18.259,0,0,0-12.858-12.939c-11.34-3.061-56.818-3.061-56.818-3.061s-45.481,0-56.821,3.061A18.265,18.265,0,0,0,18.914,41.76c-3.039,11.414-3.039,35.234-3.039,35.234s0,23.816,3.039,35.231a18,18,0,0,0,12.858,12.734c11.34,3.061,56.821,3.061,56.821,3.061s45.477,0,56.818-3.061a17.989,17.989,0,0,0,12.858-12.734c3.039-11.414,3.039-35.231,3.039-35.231S161.308,53.174,158.269,41.76ZM73.719,98.616V55.368L111.73,76.994,73.719,98.616Z" transform="translate(-15.875 -25.76)"/></g></g></svg>