<svg xmlns="http://www.w3.org/2000/svg" width="172.806" height="117" viewBox="0 0 172.806 117"><g transform="translate(-488.157 -899)"><path d="M297.493,74.636H210.969A14.454,14.454,0,0,0,196.628,89.2v87.871a14.454,14.454,0,0,0,14.341,14.564h86.524a14.454,14.454,0,0,0,14.341-14.564V89.2a14.454,14.454,0,0,0-14.341-14.564Zm56.823,11.488-32.884,23.031v47.957l32.884,23a9.609,9.609,0,0,0,15.118-7.859V93.984A9.613,9.613,0,0,0,354.316,86.124Z" transform="translate(291.529 824.364)" fill="#606060"/><path d="M6.5-35.156V-46.113H30.879V-70.488H41.836v24.375H66.211v10.957H41.836v24.375H30.879V-35.156Z" transform="translate(508.829 998.667)" fill="#fff"/></g></svg>